<svg xmlns="http://www.w3.org/2000/svg" viewBox="0 0 700 900">
<defs><radialGradient id="bg"><stop stop-color="#66584f"/><stop offset="1" stop-color="#211e20"/></radialGradient><linearGradient id="skin" x2="1" y2="1"><stop stop-color="#c49b7c"/><stop offset=".45" stop-color="#967259"/><stop offset="1" stop-color="#3f2b26"/></linearGradient><linearGradient id="metal"><stop stop-color="#71614b"/><stop offset=".25" stop-color="#ffedc0"/><stop offset=".5" stop-color="#a38854"/><stop offset=".8" stop-color="#f9e5b3"/><stop offset="1" stop-color="#685841"/></linearGradient><filter id="shadow"><feGaussianBlur stdDeviation="18"/></filter></defs>
<path fill="url(#bg)" d="M0 0h700v900H0z"/><ellipse cx="366" cy="501" rx="165" ry="295" opacity=".4" filter="url(#shadow)"/>
<path d="M225 900C237 746 241 673 219 526 181 276 256 130 377 176 518 230 501 381 458 466 418 543 418 607 373 649 328 691 304 633 295 616L326 900" fill="url(#skin)"/>
<path d="M276 515C218 332 254 200 355 220 456 241 462 352 419 428" fill="none" stroke="#d3ac8a" stroke-width="17" stroke-linecap="round" opacity=".65"/>
<path d="M290 485C253 373 299 284 357 294 423 307 403 383 376 414 338 458 384 478 368 538 354 588 316 557 319 507" fill="none" stroke="#49312a" stroke-width="23" stroke-linecap="round"/>
<path d="M298 443C277 363 308 314 345 324" fill="none" stroke="#d0a183" stroke-width="13" stroke-linecap="round"/>
<g fill="none" stroke="url(#metal)"><ellipse cx="352" cy="616" rx="33" ry="49" stroke-width="9"/><ellipse cx="392" cy="575" rx="25" ry="37" stroke-width="7"/><ellipse cx="446" cy="312" rx="24" ry="16" stroke-width="8" transform="rotate(-25 446 312)"/></g>
<g fill="#f7e3b9"><circle cx="407" cy="503" r="7"/><circle cx="420" cy="479" r="5"/><circle cx="428" cy="459" r="4"/></g><path d="m409 492 2 9 9 2-9 2-2 9-2-9-9-2 9-2z" fill="#fff5de"/>
</svg>
